<svg xmlns="http://www.w3.org/2000/svg" xmlns:xlink="http://www.w3.org/1999/xlink" width="23" height="23" viewBox="0 0 23 23">
  <defs>
    <polygon id="english-a" points="0 0 23 0 23 23 0 23"/>
  </defs>
  <g fill="none" fill-rule="evenodd">
    <path fill="#F0F0F0" d="M11.5,0 C17.8512793,0 23,5.1487207 23,11.5 C23,17.8512793 17.8512793,23 11.5,23 C5.1487207,23 0,17.8512793 0,11.5 C0,5.1487207 5.1487207,0 11.5,0"/>
    <path fill="#0052B4" d="M2.37726113 4.4985709C1.47392715 5.67386191.792776758 7.02848105.396161523 8.50007676L6.37876699 8.50007676 2.37726113 4.4985709zM22.6038205 8.50008125C22.2072053 7.02853047 21.52601 5.67391133 20.6227209 4.49862031L16.6213049 8.50008125 22.6038205 8.50008125zM.396157031 14.500049C.792817188 15.9716447 1.47396758 17.3262189 2.37725664 18.501465L6.37862773 14.500049.396157031 14.500049zM18.5014516 2.37730605C17.3261605 1.47397207 15.9715863.79282168 14.4999906.396161523L14.4999906 6.37872207 18.5014516 2.37730605zM4.4985709 20.6226715C5.67386191 21.5260055 7.02848105 22.2071559 8.50003184 22.6038609L8.50003184 16.6213453 4.4985709 20.6226715zM8.49997344.396157031C7.02842266.792817187 5.67380352 1.47396758 4.49855742 2.37725664L8.49997344 6.37867266 8.49997344.396157031zM14.5000266 22.6038385C15.9715773 22.2071783 17.3261965 21.5260279 18.5014426 20.6226939L14.5000266 16.6213229 14.5000266 22.6038385zM16.6213139 14.500049L20.6227299 18.50151C21.5260639 17.3262639 22.2072143 15.9716447 22.6038295 14.500049L16.6213139 14.500049z"/>
    <mask id="english-b" fill="#fff">
      <use xlink:href="#english-a"/>
    </mask>
    <path fill="#D80027" d="M22.9026543,10.0000092 L13.0000762,10.0000092 L13.0000313,10.0000092 L13.0000313,0.0973412109 C12.5089902,0.0334173828 12.0083809,-4.4921875e-06 11.5,-4.4921875e-06 C10.9915293,-4.4921875e-06 10.4910098,0.0334173828 10.0000137,0.0973412109 L10.0000137,9.99991934 L10.0000137,9.99996426 L0.0973457031,9.99996426 C0.033421875,10.4910053 0,10.9916146 0,11.4999955 C0,12.0084662 0.033421875,12.5090307 0.0973457031,12.9999818 L9.99992383,12.9999818 L9.99996875,12.9999818 L9.99996875,22.9026947 C10.4910098,22.9665736 10.9915293,23.0000404 11.5,23.0000404 C12.0083809,23.0000404 12.5089902,22.9666186 12.9999863,22.9026947 L12.9999863,13.0000717 L12.9999863,13.0000268 L22.9026543,13.0000268 C22.9665781,12.5090307 23,12.0084662 23,11.4999955 C23,10.9916146 22.9665781,10.4910053 22.9026543,10.0000092" mask="url(#english-b)"/>
    <path fill="#D80027" d="M14.5000266 14.5000041L19.631677 19.6317443C19.8677414 19.3958146 20.0928898 19.1491486 20.3077063 18.8934982L15.9142121 14.5000041 14.5000266 14.5000041zM8.49997344 14.500049L8.49988359 14.500049 3.3682332 19.6316994C3.60416289 19.8677189 3.85082891 20.0928674 4.10652422 20.3076838L8.49997344 15.9141447 8.49997344 14.500049zM8.49997344 8.50008125L8.49997344 8.49999141 3.36827813 3.36825117C3.13225859 3.60418086 2.90711016 3.85084688 2.69229375 4.10654219L7.08578789 8.50003633 8.49997344 8.50008125zM14.5000266 8.50008125L19.6317219 3.36829609C19.3957922 3.13227656 19.1491711 2.90712812 18.8934758 2.69235664L14.5000266 7.08585078 14.5000266 8.50008125z"/>
  </g>
</svg>
