<?xml version="1.0" standalone="no"?>
<!DOCTYPE svg PUBLIC "-//W3C//DTD SVG 20010904//EN"
 "http://www.w3.org/TR/2001/REC-SVG-20010904/DTD/svg10.dtd">
<svg version="1.0" xmlns="http://www.w3.org/2000/svg"
 width="376.000000pt" height="376.000000pt" viewBox="0 0 376.000000 376.000000"
 preserveAspectRatio="xMidYMid meet">
<metadata>
Created by potrace 1.11, written by Peter Selinger 2001-2013
</metadata>
<g transform="translate(0.000000,376.000000) scale(0.100000,-0.100000)"
fill="#000000" stroke="none">
<path d="M1690 3750 c-64 -9 -126 -18 -160 -25 -14 -3 -36 -7 -50 -10 -134
-26 -329 -97 -470 -172 -481 -256 -820 -688 -954 -1218 -8 -33 -18 -76 -21
-95 -3 -19 -8 -42 -10 -50 -25 -87 -25 -549 0 -590 2 -3 6 -29 10 -59 16 -128
101 -371 187 -531 87 -165 173 -281 318 -433 103 -108 288 -254 400 -315 243
-133 489 -215 720 -240 87 -9 381 -9 450 1 428 58 788 231 1084 521 130 127
257 290 322 411 84 158 114 228 158 361 28 86 31 94 51 194 24 119 26 134 32
283 l6 147 -34 0 c-19 1 -430 2 -913 3 l-879 2 0 168 c1 92 2 170 4 172 2 2
43 6 91 9 256 17 499 69 710 152 613 241 1008 716 1017 1223 l2 101 -1008 -1
c-554 -1 -1033 -5 -1063 -9z m138 -958 l-3 -857 -25 1 c-58 3 -141 16 -250 40
-55 12 -202 73 -272 113 -364 208 -597 575 -624 982 -6 88 -13 77 111 178 225
185 493 312 770 365 119 23 174 31 238 33 l57 3 -2 -858z m1822 821 c0 -49
-22 -150 -50 -233 -86 -258 -301 -511 -580 -684 -73 -46 -270 -146 -286 -146
-4 0 -20 -6 -37 -14 -94 -42 -316 -100 -466 -122 -25 -4 -55 -8 -66 -10 -11
-3 -66 -7 -122 -10 -82 -5 -103 -3 -104 8 0 19 -1 1176 0 1216 l1 32 855 0
855 0 0 -37z m-3090 -678 c6 -27 12 -61 15 -74 33 -174 146 -399 279 -559 171
-204 365 -332 638 -421 46 -15 66 -19 148 -32 95 -16 98 -17 69 -37 -14 -9
-50 -33 -80 -53 -187 -125 -412 -191 -654 -191 -308 -1 -547 86 -798 290 l-69
56 6 75 c4 42 9 92 11 111 40 323 183 653 391 903 l29 36 2 -27 c2 -15 7 -49
13 -77z m3091 -1120 c2 -19 -2 -90 -6 -127 -13 -104 -18 -131 -40 -225 -81
-342 -271 -658 -541 -903 -279 -252 -648 -412 -1029 -445 -44 -4 -83 -9 -87
-12 -10 -5 -9 -77 -10 883 0 452 2 826 5 830 8 13 1707 12 1708 -1z m-3492
-84 c135 -106 310 -190 486 -234 377 -94 771 -22 1089 200 l78 55 -7 -44 c-61
-398 -307 -737 -666 -919 -72 -36 -246 -95 -310 -104 -24 -4 -46 -8 -49 -10
-3 -1 -44 -6 -92 -10 l-88 -6 -35 38 c-222 238 -393 603 -435 929 -6 43 -12
91 -15 107 -6 34 -2 34 44 -2z m1671 -992 l0 -632 -87 6 c-270 18 -573 120
-808 271 -88 57 -229 165 -223 171 2 1 29 6 62 10 219 25 471 134 661 288 156
126 294 304 369 475 11 23 21 42 23 42 1 0 3 -284 3 -631z"/>
</g>
</svg>
