<?xml version="1.0" encoding="UTF-8"?>
<svg width="48px" height="44px" viewBox="0 0 48 44" version="1.1" xmlns="http://www.w3.org/2000/svg" xmlns:xlink="http://www.w3.org/1999/xlink">
    <!-- Generator: Sketch 51.2 (57519) - http://www.bohemiancoding.com/sketch -->
    <title>Group</title>
    <desc>Created with Sketch.</desc>
    <defs></defs>
    <g id="Symbols" stroke="none" stroke-width="1" fill="none" fill-rule="evenodd">
        <g id="Icon-/-13" transform="translate(-3.000000, -6.000000)" fill="#FEFEFE">
            <g id="Group" transform="translate(3.000000, 6.000000)">
                <g id="Group-4" transform="translate(0.297030, 0.078958)">
                    <path d="M23.5410891,34.9445714 C25.4420792,38.0381978 28.8282178,40.039956 33.159901,40.039956 C39.3975248,40.039956 43.4321782,35.0052308 43.4321782,29.2476484 C43.4321782,23.0603956 38.6846535,18.4553407 32.3876238,18.4553407 C30.1351485,18.4553407 28.7044554,18.879956 28.1747525,19.0568791 L28.1747525,16.8175385 L39.1549505,3.90215385 L22.65,3.90215385 L22.65,0.449626374 L44.620297,0.449626374 L44.620297,2.69402198 L34.0509901,15.1797363 C41.5311881,15.7256703 46.9965347,21.7865495 46.9965347,29.2476484 C46.9965347,36.8856703 41.3529703,43.4924835 33.159901,43.4924835 C27.699505,43.4924835 23.1846535,41.0054505 20.6945545,36.825011 L23.5410891,34.9445714 Z" id="Fill-2"></path>
                    <polygon id="Fill-1" points="9.39851485 0.447604396 0.195544554 6.14958242 0.195544554 9.78408791 8.21534653 5.23969231 8.21534653 42.8889231 11.779703 42.8889231 11.779703 0.447604396"></polygon>
                </g>
            </g>
        </g>
    </g>
</svg>