<?xml version="1.0" encoding="UTF-8"?>
<svg width="51px" height="51px" viewBox="0 0 51 51" version="1.1" xmlns="http://www.w3.org/2000/svg" xmlns:xlink="http://www.w3.org/1999/xlink">
    <!-- Generator: Sketch 51.2 (57519) - http://www.bohemiancoding.com/sketch -->
    <title>Group</title>
    <desc>Created with Sketch.</desc>
    <defs></defs>
    <g id="Symbols" stroke="none" stroke-width="1" fill="none" fill-rule="evenodd">
        <g id="Icon-/-Diseases-Copy-4" transform="translate(-2.000000, -1.000000)" fill="#FFFFFF">
            <g id="Group" transform="translate(2.000000, 1.000000)">
                <path d="M39.9499336,47.6000332 L46.7499668,47.6000332 L46.7499668,29.7500332 L39.9499336,29.7500332 L39.9499336,47.6000332 Z M28.9000664,47.6000332 L35.7000996,47.6000332 L35.7000996,37.4000332 L28.9000664,37.4000332 L28.9000664,47.6000332 Z M22.1000332,47.6000332 C22.1000332,47.1307734 21.7192266,46.7500664 21.2499668,46.7500664 C20.7808066,46.7500664 20.4,47.1307734 20.4,47.6000332 L17.85,47.6000332 L17.85,45.0499336 L17.85,39.9499336 L17.85,34.8500332 L17.85,29.7500332 L17.85,24.6500332 L17.85,19.5500332 L17.85,14.4500332 L17.85,11.0499668 L21.2499668,11.0499668 L24.6500332,11.0499668 L24.6500332,14.4500332 L24.6500332,19.5500332 L24.6500332,24.6500332 L24.6500332,29.7500332 L24.6500332,34.8500332 L24.6500332,39.9499336 L24.6500332,45.0499336 L24.6500332,47.6000332 L22.1000332,47.6000332 Z M6.8000332,47.6000332 L13.6000664,47.6000332 L13.6000664,17.85 L6.8000332,17.85 L6.8000332,47.6000332 Z M50.1500332,47.6000332 L48.45,47.6000332 L48.45,28.05 L38.25,28.05 L38.25,47.6000332 L37.4000332,47.6000332 L37.4000332,35.7 L27.1999336,35.7 L27.1999336,47.6000332 L26.3499668,47.6000332 L26.3499668,9.34993359 L16.1499668,9.34993359 L16.1499668,47.6000332 L15.3,47.6000332 L15.3,16.1499668 L5.1,16.1499668 L5.1,47.6000332 L3.3999668,47.6000332 L3.3999668,0.849966797 C3.3999668,0.379910156 3.02005664,0 2.55,0 C2.07994336,0 1.7000332,0.379910156 1.7000332,0.849966797 L1.7000332,47.6000332 L0.849966797,47.6000332 C0.379910156,47.6000332 0,47.9799434 0,48.45 C0,48.9200566 0.379910156,49.2999668 0.849966797,49.2999668 L1.7000332,49.2999668 L1.7000332,50.1500332 C1.7000332,50.6199902 2.07994336,51 2.55,51 C3.02005664,51 3.3999668,50.6199902 3.3999668,50.1500332 L3.3999668,49.2999668 L5.1,49.2999668 L15.3,49.2999668 L16.1499668,49.2999668 L26.3499668,49.2999668 L27.1999336,49.2999668 L37.4000332,49.2999668 L38.25,49.2999668 L48.45,49.2999668 L50.1500332,49.2999668 C50.6200898,49.2999668 51,48.9200566 51,48.45 C51,47.9799434 50.6200898,47.6000332 50.1500332,47.6000332 Z" id="Fill-1"></path>
                <path d="M21.2500166,11.0500066 C21.7194756,11.0500066 22.0999834,11.4305145 22.0999834,11.8999734 C22.0999834,12.3694324 21.7194756,12.7499402 21.2500166,12.7499402 C20.7805576,12.7499402 20.3999502,12.3694324 20.3999502,11.8999734 C20.3999502,11.4305145 20.7805576,11.0500066 21.2500166,11.0500066" id="Fill-3"></path>
                <path d="M21.2500166,16.1499768 C21.7194756,16.1499768 22.0999834,16.5305842 22.0999834,17.0000432 C22.0999834,17.4695021 21.7194756,17.85001 21.2500166,17.85001 C20.7805576,17.85001 20.3999502,17.4695021 20.3999502,17.0000432 C20.3999502,16.5305842 20.7805576,16.1499768 21.2500166,16.1499768" id="Fill-4"></path>
                <path d="M18.7000066,13.6000166 C19.1694656,13.6000166 19.5499734,13.9805244 19.5499734,14.4499834 C19.5499734,14.9194424 19.1694656,15.2999502 18.7000066,15.2999502 C18.2305477,15.2999502 17.8500398,14.9194424 17.8500398,14.4499834 C17.8500398,13.9805244 18.2305477,13.6000166 18.7000066,13.6000166" id="Fill-5"></path>
                <path d="M18.7000066,18.6999867 C19.1694656,18.6999867 19.5499734,19.0805941 19.5499734,19.5500531 C19.5499734,20.0194125 19.1694656,20.4000199 18.7000066,20.4000199 C18.2305477,20.4000199 17.8500398,20.0194125 17.8500398,19.5500531 C17.8500398,19.0805941 18.2305477,18.6999867 18.7000066,18.6999867" id="Fill-6"></path>
                <path d="M23.7999768,13.6000166 C24.2694357,13.6000166 24.6500432,13.9805244 24.6500432,14.4499834 C24.6500432,14.9194424 24.2694357,15.2999502 23.7999768,15.2999502 C23.3306174,15.2999502 22.95001,14.9194424 22.95001,14.4499834 C22.95001,13.9805244 23.3306174,13.6000166 23.7999768,13.6000166" id="Fill-7"></path>
                <path d="M23.7999768,18.6999867 C24.2694357,18.6999867 24.6500432,19.0805941 24.6500432,19.5500531 C24.6500432,20.0194125 24.2694357,20.4000199 23.7999768,20.4000199 C23.3306174,20.4000199 22.95001,20.0194125 22.95001,19.5500531 C22.95001,19.0805941 23.3306174,18.6999867 23.7999768,18.6999867" id="Fill-8"></path>
                <path d="M21.2500166,21.2499967 C21.7194756,21.2499967 22.0999834,21.6305045 22.0999834,22.0999635 C22.0999834,22.5694225 21.7194756,22.9500299 21.2500166,22.9500299 C20.7805576,22.9500299 20.3999502,22.5694225 20.3999502,22.0999635 C20.3999502,21.6305045 20.7805576,21.2499967 21.2500166,21.2499967" id="Fill-9"></path>
                <path d="M21.2500166,26.3499668 C21.7194756,26.3499668 22.0999834,26.7305742 22.0999834,27.1999336 C22.0999834,27.6693926 21.7194756,28.05 21.2500166,28.05 C20.7805576,28.05 20.3999502,27.6693926 20.3999502,27.1999336 C20.3999502,26.7305742 20.7805576,26.3499668 21.2500166,26.3499668" id="Fill-10"></path>
                <path d="M18.7000066,23.8000066 C19.1694656,23.8000066 19.5499734,24.1805145 19.5499734,24.6499734 C19.5499734,25.1194324 19.1694656,25.4999402 18.7000066,25.4999402 C18.2305477,25.4999402 17.8500398,25.1194324 17.8500398,24.6499734 C17.8500398,24.1805145 18.2305477,23.8000066 18.7000066,23.8000066" id="Fill-11"></path>
                <path d="M18.7000066,28.9000266 C19.1694656,28.9000266 19.5499734,29.2805344 19.5499734,29.7499934 C19.5499734,30.2194523 19.1694656,30.5999602 18.7000066,30.5999602 C18.2305477,30.5999602 17.8500398,30.2194523 17.8500398,29.7499934 C17.8500398,29.2805344 18.2305477,28.9000266 18.7000066,28.9000266" id="Fill-12"></path>
                <path d="M23.7999768,23.8000066 C24.2694357,23.8000066 24.6500432,24.1805145 24.6500432,24.6499734 C24.6500432,25.1194324 24.2694357,25.4999402 23.7999768,25.4999402 C23.3306174,25.4999402 22.95001,25.1194324 22.95001,24.6499734 C22.95001,24.1805145 23.3306174,23.8000066 23.7999768,23.8000066" id="Fill-13"></path>
                <path d="M23.7999768,28.9000266 C24.2694357,28.9000266 24.6500432,29.2805344 24.6500432,29.7499934 C24.6500432,30.2194523 24.2694357,30.5999602 23.7999768,30.5999602 C23.3306174,30.5999602 22.95001,30.2194523 22.95001,29.7499934 C22.95001,29.2805344 23.3306174,28.9000266 23.7999768,28.9000266" id="Fill-14"></path>
                <path d="M21.2500166,31.4499867 C21.7194756,31.4499867 22.0999834,31.8304945 22.0999834,32.2999535 C22.0999834,32.7694125 21.7194756,33.1499203 21.2500166,33.1499203 C20.7805576,33.1499203 20.3999502,32.7694125 20.3999502,32.2999535 C20.3999502,31.8304945 20.7805576,31.4499867 21.2500166,31.4499867" id="Fill-15"></path>
                <path d="M21.2500166,36.5500066 C21.7194756,36.5500066 22.0999834,36.9305145 22.0999834,37.3999734 C22.0999834,37.8694324 21.7194756,38.2499402 21.2500166,38.2499402 C20.7805576,38.2499402 20.3999502,37.8694324 20.3999502,37.3999734 C20.3999502,36.9305145 20.7805576,36.5500066 21.2500166,36.5500066" id="Fill-16"></path>
                <path d="M18.7000066,34.0000465 C19.1694656,34.0000465 19.5499734,34.3805543 19.5499734,34.8500133 C19.5499734,35.3194723 19.1694656,35.6999801 18.7000066,35.6999801 C18.2305477,35.6999801 17.8500398,35.3194723 17.8500398,34.8500133 C17.8500398,34.3805543 18.2305477,34.0000465 18.7000066,34.0000465" id="Fill-17"></path>
                <path d="M18.7000066,39.0999668 C19.1694656,39.0999668 19.5499734,39.4805742 19.5499734,39.9499336 C19.5499734,40.4193926 19.1694656,40.8 18.7000066,40.8 C18.2305477,40.8 17.8500398,40.4193926 17.8500398,39.9499336 C17.8500398,39.4805742 18.2305477,39.0999668 18.7000066,39.0999668" id="Fill-18"></path>
                <path d="M23.7999768,34.0000465 C24.2694357,34.0000465 24.6500432,34.3805543 24.6500432,34.8500133 C24.6500432,35.3194723 24.2694357,35.6999801 23.7999768,35.6999801 C23.3306174,35.6999801 22.95001,35.3194723 22.95001,34.8500133 C22.95001,34.3805543 23.3306174,34.0000465 23.7999768,34.0000465" id="Fill-19"></path>
                <path d="M23.7999768,39.0999668 C24.2694357,39.0999668 24.6500432,39.4805742 24.6500432,39.9499336 C24.6500432,40.4193926 24.2694357,40.8 23.7999768,40.8 C23.3306174,40.8 22.95001,40.4193926 22.95001,39.9499336 C22.95001,39.4805742 23.3306174,39.0999668 23.7999768,39.0999668" id="Fill-20"></path>
                <path d="M21.2500166,41.6500266 C21.7194756,41.6500266 22.0999834,42.0305344 22.0999834,42.4999934 C22.0999834,42.9694523 21.7194756,43.3499602 21.2500166,43.3499602 C20.7805576,43.3499602 20.3999502,42.9694523 20.3999502,42.4999934 C20.3999502,42.0305344 20.7805576,41.6500266 21.2500166,41.6500266" id="Fill-21"></path>
                <path d="M18.7000066,44.1999867 C19.1694656,44.1999867 19.5499734,44.5804945 19.5499734,45.0499535 C19.5499734,45.5194125 19.1694656,45.8999203 18.7000066,45.8999203 C18.2305477,45.8999203 17.8500398,45.5194125 17.8500398,45.0499535 C17.8500398,44.5804945 18.2305477,44.1999867 18.7000066,44.1999867" id="Fill-22"></path>
                <path d="M23.7999768,44.1999867 C24.2694357,44.1999867 24.6500432,44.5804945 24.6500432,45.0499535 C24.6500432,45.5194125 24.2694357,45.8999203 23.7999768,45.8999203 C23.3306174,45.8999203 22.95001,45.5194125 22.95001,45.0499535 C22.95001,44.5804945 23.3306174,44.1999867 23.7999768,44.1999867" id="Fill-23"></path>
            </g>
        </g>
    </g>
</svg>