<?xml version="1.0" encoding="UTF-8"?>
<svg width="51px" height="51px" viewBox="0 0 51 51" version="1.1" xmlns="http://www.w3.org/2000/svg" xmlns:xlink="http://www.w3.org/1999/xlink">
    <!-- Generator: Sketch 51.2 (57519) - http://www.bohemiancoding.com/sketch -->
    <title>Group 6</title>
    <desc>Created with Sketch.</desc>
    <defs>
        <polygon id="path-1" points="3.984375e-05 0 51 0 51 51 3.984375e-05 51"></polygon>
    </defs>
    <g id="Symbols" stroke="none" stroke-width="1" fill="none" fill-rule="evenodd">
        <g id="Icon-/-Diseases-Copy-7" transform="translate(-2.000000, -2.000000)">
            <g id="Group-6" transform="translate(2.000000, 2.000000)">
                <g id="Group-3">
                    <mask id="mask-2" fill="white">
                        <use xlink:href="#path-1"></use>
                    </mask>
                    <g id="Clip-2"></g>
                    <path d="M26.59395,48.7573945 L26.59395,44.2722832 C26.59395,43.6680527 26.1041707,43.1782734 25.5000398,43.1782734 C24.895909,43.1782734 24.4060301,43.6680527 24.4060301,44.2722832 L24.4060301,48.7573945 C12.4107703,48.1847402 2.81529961,38.5892695 2.24264531,26.5939102 L6.72785625,26.5939102 C7.33198711,26.5939102 7.82176641,26.1041309 7.82176641,25.5 C7.82176641,24.8958691 7.33198711,24.4060898 6.72785625,24.4060898 L2.24264531,24.4060898 C2.81529961,12.4107305 12.4107703,2.81525977 24.4060301,2.24260547 L24.4060301,6.72781641 C24.4060301,7.33194727 24.895909,7.82172656 25.5000398,7.82172656 C26.1041707,7.82172656 26.59395,7.33194727 26.59395,6.72781641 L26.59395,2.24260547 C38.5893094,2.81525977 48.1846805,12.4107305 48.7574344,24.4060898 L44.2722234,24.4060898 C43.6680926,24.4060898 43.1782137,24.8958691 43.1782137,25.5 C43.1782137,26.1041309 43.6680926,26.5939102 44.2722234,26.5939102 L44.2831805,26.5939102 L48.7682918,26.5939102 C48.1952391,38.5932539 38.593493,48.1902188 26.59395,48.7573945 M25.5000398,0 C11.4167684,0 3.984375e-05,11.4167285 3.984375e-05,25.5 C3.984375e-05,39.5831719 11.4167684,51 25.5000398,51 C39.5832117,51 51.0000398,39.5831719 51.0000398,25.5 C50.9819109,11.4242988 39.575741,0.0180292969 25.5000398,0" id="Fill-1" fill="#FFFFFF" mask="url(#mask-2)"></path>
                </g>
                <path d="M37.0411705,35.673743 L26.59394,25.0514988 L26.59394,14.0134852 C26.59394,13.4093543 26.1041607,12.919575 25.5000299,12.919575 C24.895899,12.919575 24.4060201,13.4093543 24.4060201,14.0134852 L24.4060201,25.5000398 C24.407315,25.7870145 24.5211686,26.0620359 24.723276,26.2658367 L35.4768053,37.2052371 C35.8997467,37.637243 36.5928287,37.6446141 37.0248346,37.2216727 C37.4567408,36.7987312 37.4641119,36.1057488 37.0411705,35.673743" id="Fill-4" fill="#FFFFFF"></path>
            </g>
        </g>
    </g>
</svg>