<?xml version="1.0" encoding="UTF-8"?>
<svg width="52px" height="52px" viewBox="0 0 52 52" version="1.1" xmlns="http://www.w3.org/2000/svg" xmlns:xlink="http://www.w3.org/1999/xlink">
    <!-- Generator: Sketch 51.2 (57519) - http://www.bohemiancoding.com/sketch -->
    <title>Group</title>
    <desc>Created with Sketch.</desc>
    <defs>
        <polygon id="path-1" points="0 0 51.9999898 0 51.9999898 51.9999898 0 51.9999898"></polygon>
    </defs>
    <g id="Symbols" stroke="none" stroke-width="1" fill="none" fill-rule="evenodd">
        <g id="Icon-/-Diseases-Copy-3" transform="translate(-2.000000, -1.000000)">
            <g id="Group" transform="translate(2.000000, 1.000000)">
                <path d="M22.267182,31.6963055 C22.5152992,31.9443211 22.8497445,32.0739148 23.1841898,32.0739148 C23.5186352,32.0739148 23.8423148,31.9443211 24.1012992,31.6963055 L33.6488852,22.1485164 C34.1560883,21.6415164 34.1560883,20.8216023 33.6488852,20.3146023 C33.1418852,19.8073992 32.3219711,19.8073992 31.8149711,20.3146023 L23.1734242,28.9560477 L20.1742836,25.9568055 C19.667182,25.4498055 18.847268,25.4498055 18.340268,25.9568055 C17.833268,26.4638055 17.833268,27.2838211 18.340268,27.7909227 L22.267182,31.6963055 Z" id="Fill-1" fill="#FFFFFF"></path>
                <path d="M12.2771594,6.75354063 C12.5252766,6.75354063 12.7734953,6.67797813 12.9999797,6.53772031 C13.5934094,6.13857969 13.7551984,5.32953281 13.3560578,4.73610313 C12.9568156,4.14267344 12.1585344,3.98088438 11.5543391,4.380025 C10.9610109,4.77926719 10.7991203,5.57754844 11.1983625,6.17097813 C11.4464797,6.54848594 11.8563859,6.75354063 12.2771594,6.75354063" id="Fill-3" fill="#FFFFFF"></path>
                <path d="M8.53362656,9.82823359 C8.86807187,9.82823359 9.20251719,9.69874141 9.45063437,9.45062422 C9.95763437,8.94362422 9.95763437,8.12360859 9.45063437,7.61660859 C8.94353281,7.10950703 8.12361875,7.10950703 7.61661875,7.61660859 C7.10961875,8.12360859 7.10961875,8.94362422 7.61661875,9.45062422 C7.86473594,9.69874141 8.19918125,9.82823359 8.53362656,9.82823359" id="Fill-5" fill="#FFFFFF"></path>
                <path d="M16.5386203,4.46639375 C16.7004094,4.46639375 16.8730656,4.43399531 17.0348547,4.3693 C17.6928781,4.09955 18.0057922,3.33356563 17.7361438,2.67554219 C17.4663938,2.01741719 16.7004094,1.70460469 16.0422844,1.97425312 C15.3842609,2.24400313 15.0714484,3.0099875 15.3410969,3.66801094 C15.5461516,4.16424531 16.0315188,4.46639375 16.5386203,4.46639375" id="Fill-7" fill="#FFFFFF"></path>
                <path d="M4.73614375,13.3452313 C4.9518625,13.4962547 5.21084688,13.5610516 5.4588625,13.5610516 C5.8797375,13.5610516 6.28964375,13.3559969 6.53776094,12.9892547 C6.93690156,12.395825 6.7751125,11.5867781 6.18168281,11.1983016 C5.58845625,10.7991609 4.77930781,10.96095 4.38006563,11.5543797 C3.98082344,12.1477078 4.14271406,12.9460906 4.73614375,13.3452313" id="Fill-9" fill="#FFFFFF"></path>
                <path d="M2.67554219,17.7360727 C2.83733125,17.8008695 3.0099875,17.8331664 3.17177656,17.8331664 C3.67887812,17.8331664 4.16434687,17.5311195 4.3693,17.0348852 C4.63905,16.3767602 4.32613594,15.6215414 3.66801094,15.3410258 C3.0099875,15.0606117 2.25476875,15.3841898 1.97435469,16.0423148 C1.70450312,16.7112055 2.01751875,17.4664242 2.67554219,17.7360727" id="Fill-11" fill="#FFFFFF"></path>
                <path d="M21.1668539,3.06391719 C21.253182,3.06391719 21.328643,3.05315156 21.4148695,3.04238594 C22.1162602,2.90202656 22.5693305,2.22237031 22.4290727,1.52118281 C22.2888148,0.81989375 21.609057,0.366823437 20.9078695,0.50708125 C20.206682,0.647339062 19.7535102,1.32699531 19.893768,2.02818281 C20.0232602,2.63237812 20.5626586,3.06391719 21.1668539,3.06391719" id="Fill-13" fill="#FFFFFF"></path>
                <path d="M1.51034609,22.4506445 C1.59667422,22.4614102 1.68300234,22.4721758 1.75846328,22.4721758 C2.36265859,22.4721758 2.90205703,22.0406367 3.03154922,21.4256758 C3.17170547,20.7244883 2.71863516,20.044832 2.01744766,19.9045742 C1.31615859,19.7643164 0.636502344,20.2174883 0.496346094,20.9186758 C0.356088281,21.6307305 0.809158594,22.3103867 1.51034609,22.4506445" id="Fill-15" fill="#FFFFFF"></path>
                <g id="Group-19">
                    <mask id="mask-2" fill="white">
                        <use xlink:href="#path-1"></use>
                    </mask>
                    <g id="Clip-18"></g>
                    <path d="M44.3834117,7.61656797 C39.474693,2.70784922 32.9476773,-1.015625e-05 25.9999898,-1.015625e-05 C25.2879352,-1.015625e-05 24.7053727,0.582552344 24.7053727,1.29460703 C24.7053727,2.00666172 25.2879352,2.58922422 25.9999898,2.58922422 C38.9137633,2.58922422 49.4107555,13.086318 49.4107555,25.9999898 C49.4107555,38.9136617 38.9137633,49.410857 25.9999898,49.410857 C13.086318,49.410857 2.58922422,38.9136617 2.58922422,25.9999898 C2.58922422,25.2879352 2.00666172,24.7053727 1.29460703,24.7053727 C0.582552344,24.7053727 -1.015625e-05,25.2879352 -1.015625e-05,25.9999898 C-1.015625e-05,32.9476773 2.70784922,39.474693 7.61656797,44.3834117 C12.5252867,49.2921305 19.0523023,51.9999898 25.9999898,51.9999898 C32.9476773,51.9999898 39.474693,49.2921305 44.3834117,44.3834117 C49.2921305,39.474693 51.9999898,32.9476773 51.9999898,25.9999898 C51.9999898,19.0523023 49.2921305,12.5252867 44.3834117,7.61656797" id="Fill-17" fill="#FFFFFF" mask="url(#mask-2)"></path>
                </g>
            </g>
        </g>
    </g>
</svg>