<?xml version="1.0" encoding="UTF-8"?>
<svg width="51px" height="51px" viewBox="0 0 51 51" version="1.1" xmlns="http://www.w3.org/2000/svg" xmlns:xlink="http://www.w3.org/1999/xlink">
    <!-- Generator: Sketch 51.2 (57519) - http://www.bohemiancoding.com/sketch -->
    <title>Group</title>
    <desc>Created with Sketch.</desc>
    <defs>
        <polygon id="path-1" points="0 0.00221656417 50.900883 0.00221656417 50.900883 50.9005251 0 50.9005251"></polygon>
    </defs>
    <g id="Symbols" stroke="none" stroke-width="1" fill="none" fill-rule="evenodd">
        <g id="Icon-/-Diseases-Copy" transform="translate(-3.000000, -2.000000)">
            <g id="Group" transform="translate(3.000000, 2.000000)">
                <path d="M23.5930474,12.2970544 C23.6354977,12.2970544 23.6787433,12.3055047 23.7287491,12.3055047 C24.1444041,12.3055047 24.5007082,12.0009959 24.5686088,11.5844462 L24.5770591,11.5327503 C24.6535094,11.0160895 24.7637608,10.4977386 24.9080123,10.0057327 C25.0351643,9.55607778 24.7731058,9.08952222 24.3150006,8.96306608 C23.8814509,8.83591404 23.3987901,9.10731754 23.2715386,9.54762749 C23.1188368,10.1075339 22.9915854,10.7013409 22.8897842,11.3205982 C22.8813339,11.3638439 22.8813339,11.4139491 22.8813339,11.4563 C22.8804392,11.8643994 23.1858427,12.2291538 23.5930474,12.2970544" id="Fill-1" fill="#FFFFFF"></path>
                <path d="M33.976548,2.26130819 C34.0189982,2.26130819 34.0698988,2.26130819 34.1207994,2.25285789 C34.6467058,2.15950702 35.1990567,2.09160643 35.7496181,2.04070585 C36.2161737,2.00680526 36.5639281,1.59115029 36.5301269,1.12449532 C36.4876766,0.666489474 36.0889222,0.31018538 35.6139164,0.352536257 C34.9869047,0.403536257 34.3930977,0.479887135 33.8323959,0.581588889 C33.4251912,0.649489474 33.128238,0.997343275 33.128238,1.40534327 C33.128238,1.45624386 33.1367877,1.50714444 33.145238,1.55804503 C33.2130392,1.96445439 33.560893,2.26130819 33.976548,2.26130819" id="Fill-3" fill="#FFFFFF"></path>
                <path d="M44.0462246,2.6939731 C44.5552304,2.80422456 45.0887918,2.92392047 45.683593,3.07572749 C45.7513942,3.08417778 45.8192947,3.09352281 45.8956456,3.09352281 C46.2773006,3.09352281 46.6174994,2.82967485 46.710055,2.4572655 C46.8296515,1.99916023 46.5496982,1.54105497 46.0991485,1.43000819 C45.5223415,1.28575673 44.9455345,1.15085029 44.3940784,1.0312538 C43.9359731,0.938797661 43.4778678,1.24330643 43.3846164,1.68530643 C43.3760667,1.74386199 43.3676164,1.8041076 43.3676164,1.86345848 C43.3685111,2.26131813 43.6483649,2.60907251 44.0462246,2.6939731" id="Fill-5" fill="#FFFFFF"></path>
                <path d="M16.7555281,48.2153105 C16.2456275,48.2832111 15.7120661,48.325562 15.1173643,48.3594626 C14.6601538,48.3773573 14.3030544,48.7497667 14.3030544,49.2077725 L14.3030544,49.2502228 C14.3284053,49.6998778 14.7026041,50.0561819 15.1512649,50.0561819 L15.1946099,50.0561819 C15.7968673,50.0222813 16.3898789,49.9712813 16.976031,49.9033807 C17.4341363,49.8441292 17.7649901,49.4199246 17.7056392,48.953369 C17.6461889,48.4951643 17.2220836,48.1644099 16.7555281,48.2153105" id="Fill-7" fill="#FFFFFF"></path>
                <path d="M28.7169567,31.2571544 C28.5906,30.6887977 28.4539041,30.1118912 28.292752,29.5436339 C28.1740503,29.1015345 27.6904947,28.8216807 27.2578398,28.9412772 C26.7997345,29.0677333 26.5366819,29.5350842 26.6555825,29.9838444 C26.7997345,30.4936456 26.926986,31.027207 27.0456877,31.5616632 C27.0456877,31.5786632 27.0456877,31.5956632 27.054138,31.6126632 L27.0626877,31.6465637 C27.1560386,32.0122129 27.4962374,32.2828211 27.8864421,32.2828211 C27.9448982,32.2828211 28.0052433,32.2742713 28.0645942,32.2581661 C28.4547988,32.1725696 28.734752,31.8247158 28.734752,31.4268561 C28.734752,31.3844058 28.725407,31.3505053 28.7169567,31.3081544 L28.725407,31.3081544 L28.7169567,31.2571544 Z" id="Fill-9" fill="#FFFFFF"></path>
                <path d="M28.2342561,39.1296953 C27.7847006,39.0194439 27.3264959,39.3078474 27.2162444,39.7574029 C27.088993,40.2918591 26.9362912,40.8000696 26.7495895,41.2929702 C26.7064433,41.3862216 26.690338,41.4965725 26.690338,41.5983737 C26.6987883,41.9545784 26.9108409,42.2599819 27.2408994,42.3873327 C27.3341509,42.4211339 27.435952,42.4390287 27.538648,42.4390287 C27.894952,42.4390287 28.2088058,42.217631 28.335262,41.8952275 C28.5472152,41.3354205 28.7253673,40.7500637 28.870414,40.147707 C28.9714199,39.6896018 28.6915661,39.2314965 28.2342561,39.1296953" id="Fill-11" fill="#FFFFFF"></path>
                <path d="M24.7052053,22.4854626 C24.7900064,22.4854626 24.865562,22.4770123 24.9419129,22.451562 C25.307562,22.3412111 25.5611702,22.0104567 25.5535152,21.6287023 C25.5535152,21.5523515 25.5441702,21.4760006 25.5196146,21.398755 C25.3583632,20.814293 25.2142111,20.2798368 25.0954099,19.7792813 C24.9936088,19.3297257 24.5270532,19.0412228 24.0774977,19.1515737 C23.6193924,19.2533749 23.3394392,19.7114801 23.4412404,20.1695854 C23.5683924,20.7040415 23.7211936,21.2808485 23.8907959,21.8746556 C23.9925971,22.2309596 24.3311058,22.4854626 24.7052053,22.4854626" id="Fill-13" fill="#FFFFFF"></path>
                <g id="Group-17" transform="translate(0.000000, 0.097228)">
                    <mask id="mask-2" fill="white">
                        <use xlink:href="#path-1"></use>
                    </mask>
                    <g id="Clip-16"></g>
                    <path d="M50.0523942,4.24248421 C50.4053181,4.24248421 50.7344819,4.02108655 50.8548737,3.66905731 C51.0068795,3.22616257 50.7701719,2.74350175 50.3272772,2.5908 C50.0523942,2.49744912 49.7793006,2.40588772 49.5076982,2.31760702 C49.5027275,2.31591696 49.4967626,2.31760702 49.491593,2.31591696 C49.4781719,2.31084678 49.4654468,2.30577661 49.4500374,2.30070643 C49.2549848,2.24046082 49.0556573,2.26501637 48.8766105,2.33798713 C48.6984585,1.7552152 48.5135462,1.16985848 48.3099439,0.575156725 C48.1573415,0.132361404 47.6753766,-0.10265614 47.2316865,0.0475602339 C46.7888912,0.200162573 46.5521836,0.682127485 46.7039906,1.12571813 C47.8424936,4.44867135 48.569517,7.56116257 48.8960959,10.3970807 L40.5375637,2.03854854 C40.6019848,2.04530877 40.6639205,2.04789357 40.7284409,2.0546538 C40.7624409,2.06320351 40.7963415,2.06320351 40.8216924,2.06320351 C41.2544468,2.06320351 41.6183064,1.7408 41.6701018,1.30814503 C41.6963474,1.07819766 41.6285462,0.857694737 41.4842947,0.67954269 C41.3493883,0.501390643 41.145786,0.391039766 40.9251836,0.365589474 C40.3060257,0.297788304 39.7112246,0.246887719 39.1606632,0.221437427 C39.0156164,0.216267836 38.8816047,0.25702807 38.7578327,0.317273684 C38.4337392,0.130671345 38.0188795,0.16208655 37.7415111,0.439454971 C37.4097626,0.771203509 37.4097626,1.30725029 37.7415111,1.63899883 L49.0794175,12.9769053 C49.1455287,15.3767883 48.8833708,17.5307181 48.2938386,19.3902795 L31.468014,2.56534971 C31.5461544,2.36681754 31.5529146,2.13865965 31.4655287,1.92660702 C31.2873766,1.51174737 30.7783708,1.29959532 30.3541661,1.46850175 C29.785014,1.70600468 29.2344526,1.98595789 28.7161018,2.28291111 C28.4530491,2.43640819 28.2918971,2.7163614 28.2918971,3.02087018 C28.2918971,3.17446667 28.3343474,3.31871813 28.4114936,3.44507485 C28.5641953,3.69957778 28.844248,3.86072982 29.140207,3.86072982 C29.2938035,3.86072982 29.4457099,3.82682924 29.572862,3.75047836 C29.7154234,3.66736725 29.8655404,3.59012164 30.0140667,3.51128538 L47.6143357,21.1106596 C47.0518444,22.2754082 46.3376456,23.2943146 45.4553357,24.1340749 C45.1083766,24.4650281 44.7291076,24.757607 44.3364175,25.0324901 L26.2321135,6.9258 C26.5003357,6.51183509 26.8031544,6.11218596 27.1306281,5.74405146 C27.4360316,5.38774737 27.4104819,4.85329123 27.0627275,4.53943743 C26.7234234,4.24248421 26.1549673,4.2763848 25.8581135,4.6157883 C25.4509088,5.07389357 25.0776047,5.57434971 24.7467509,6.09190526 C24.6814351,6.20126199 24.6500199,6.3183731 24.6339146,6.43796959 C24.6169146,6.4523848 24.5957392,6.45834971 24.5796339,6.47356023 C24.2479848,6.80530877 24.2479848,7.34145497 24.5796339,7.67310409 L42.8161602,25.9105251 C41.0931953,26.7087298 39.0504117,27.0829287 36.7438795,27.0370982 L24.3683766,14.6608 C24.3039556,14.2374901 23.9425813,13.8922211 23.5082363,13.9389462 C23.0416807,13.9567415 22.6768269,14.3460515 22.6938269,14.8127064 C22.7192772,15.3971684 22.7616281,15.9918702 22.8295287,16.5941275 C22.8804292,17.0183322 23.235938,17.3406363 23.6684936,17.3406363 L23.7702947,17.3406363 C24.0019322,17.3134959 24.1961895,17.1931041 24.3310959,17.0234023 L34.1275696,26.8199754 C31.847283,26.4967766 29.3625988,25.8214491 26.7089088,24.789917 C26.6708327,24.6914959 26.6308678,24.5904901 26.5952772,24.492069 C26.4350199,24.0679637 25.9251193,23.8380164 25.5009146,24.0000632 C25.3787333,24.0492737 25.2761368,24.1265193 25.1887509,24.2189754 C16.573131,21.0648292 9.51922456,21.5442094 5.24109006,25.616952 C2.28130058,28.4359696 0.877359064,32.8269404 1.04020117,38.2706187 C1.03682105,38.3164491 1.03940585,38.3588994 1.04358129,38.4047298 C1.12848187,40.849648 1.51948187,43.4997591 2.24063977,46.3238468 C2.15066901,46.2364608 2.04638246,46.1635895 1.91903158,46.1219345 C1.65528304,46.0362386 1.39143509,45.9471626 1.12420702,45.8563965 C0.680516959,45.7062795 0.198651462,45.9411977 0.0459497076,46.3840924 C-0.10585731,46.8269871 0.130850292,47.309648 0.573645614,47.4622503 C0.849323977,47.5563965 1.12251696,47.647262 1.39401988,47.736338 C1.48220117,47.7642737 1.56958713,47.7778936 1.6569731,47.7778936 C2.01496725,47.7778936 2.34661637,47.5496363 2.46372749,47.1925368 C2.46879766,47.1772269 2.46452281,47.1629111 2.46879766,47.1476012 C2.75382105,48.1893731 3.06946433,49.2455602 3.44018363,50.3278936 C3.56147018,50.6792269 3.88973918,50.9005251 4.24266316,50.9005251 C4.33342924,50.9005251 4.42678012,50.8853146 4.5175462,50.8547942 C4.96034152,50.7020924 5.19704912,50.2202269 5.04514269,49.7766363 C4.92047602,49.4117825 4.81191462,49.0562737 4.6973883,48.6965895 C4.7143883,48.7034491 4.72621871,48.7161743 4.74321871,48.7204491 L4.80256959,48.7288 C5.36247602,48.8731509 5.92238246,49.0003029 6.44828889,49.1191041 C6.50773918,49.1284491 6.5679848,49.1368994 6.62644094,49.1368994 C7.02609006,49.1368994 7.37294971,48.8570456 7.45785029,48.4667415 C7.50030058,48.2461392 7.46630058,48.0170865 7.3382538,47.8304842 C7.22034737,47.6430865 7.02609006,47.507186 6.80459298,47.4563848 C6.25403158,47.3375836 5.70178012,47.2103322 5.16732398,47.0755251 C4.83478012,46.9872444 4.49547602,47.1195661 4.29187368,47.3748643 C3.59030058,44.9605661 3.11857544,42.6692444 2.88365731,40.5364901 L10.4091895,48.0620222 C10.3192187,48.0510865 10.2284526,48.0468117 10.1393766,48.0340865 L10.1300316,48.0765368 L10.1215813,48.0340865 C9.65502573,47.9823906 9.23082105,48.3140398 9.17147018,48.772145 C9.16301988,48.8060456 9.16301988,48.8391509 9.16301988,48.8823965 C9.16301988,49.3066012 9.48532398,49.6629053 9.90942924,49.7214608 C10.5033357,49.798607 11.0886924,49.8571626 11.6578444,49.8996129 L11.7249497,49.8996129 C11.883517,49.8996129 12.0243883,49.8444374 12.1516398,49.7671918 C12.2992713,49.8740632 12.4663883,49.9427591 12.6411602,49.9427591 C12.858283,49.9427591 13.0755053,49.859648 13.2409322,49.6942211 C13.5725813,49.3624725 13.5725813,48.8264257 13.2409322,48.4946772 L2.71485029,37.9686947 C2.66305497,35.5891918 2.93962807,33.4487825 3.54109006,31.5960807 L19.5974409,47.6523322 C19.4573649,47.8058292 19.3683883,48.001876 19.3683883,48.2197942 C19.3683883,48.3046947 19.3768386,48.3979462 19.4107392,48.4913965 C19.5210901,48.8382561 19.8433942,49.0682035 20.2166982,49.0682035 C20.3091544,49.0682035 20.3948503,49.0597532 20.4796515,49.0257532 L20.5314468,49.0079579 C21.1082538,48.8137006 21.6597099,48.5930982 22.1687158,48.3548 C22.5929205,48.1511977 22.7795228,47.6506421 22.5750257,47.2264374 C22.3884234,46.8192327 21.8624175,46.6241801 21.4476573,46.8192327 C21.3839322,46.8498526 21.3152363,46.8753029 21.2499205,46.9050281 L4.22735322,29.8832561 C4.79829474,28.7159228 5.52104327,27.6928409 6.41180351,26.844531 C6.75200234,26.5204374 7.1218269,26.2319345 7.5036807,25.960531 L25.3465228,43.8034725 C25.2914468,43.8442327 25.2312012,43.8798234 25.1870608,43.9349988 C24.856207,44.3413088 24.492248,44.7238585 24.1020433,45.0801626 C23.9238912,45.2328643 23.8220901,45.461917 23.8220901,45.7079696 C23.8220901,45.9115719 23.8984409,46.1143789 24.0426924,46.2764257 C24.1953942,46.4545778 24.4243474,46.5562795 24.6704,46.5562795 C24.8824526,46.5562795 25.0852596,46.4799287 25.2387567,46.3442269 L25.3151076,46.267876 C25.7477626,45.8683263 26.1456222,45.4441216 26.5112713,44.9953614 C26.6283825,44.8426596 26.6809731,44.6568526 26.6809731,44.4676655 C26.8022596,44.4278994 26.9176807,44.3675544 27.013517,44.2709228 C27.3452655,43.9392737 27.3452655,43.4030281 27.013517,43.0713789 L9.00942339,25.0680807 C10.7153883,24.2519813 12.7319263,23.8542211 15.000283,23.8592912 L27.5886339,36.4475427 L27.5886339,36.4620573 C27.5979789,36.9200632 27.961938,37.2933673 28.4284936,37.2933673 L28.4369439,37.2933673 C28.8951485,37.2933673 29.2768035,36.9200632 29.2852538,36.4620573 L29.2852538,36.2253497 C29.2852538,36.1846889 29.2810784,36.1413439 29.280283,36.100683 C29.280283,36.0947181 29.2793883,36.0887532 29.2793883,36.0827883 C29.2768035,35.6187181 29.2641778,35.1504725 29.2260023,34.6729813 C29.1920023,34.205531 28.8017977,33.8492269 28.3182421,33.8830281 C28.0882947,33.9009228 27.8855871,34.0103789 27.7328854,34.180876 C27.7311953,34.1834608 27.7304,34.1868409 27.7286105,34.188531 L17.5682772,24.0280982 C19.9681602,24.3266421 22.5954058,25.0188702 25.4067684,26.1116421 C25.4788444,26.3016246 25.5492304,26.4882269 25.6290608,26.6892444 C25.7477626,27.0200982 26.0701661,27.2491509 26.4256749,27.2491509 C26.5189263,27.2491509 26.6207275,27.2313556 26.7148737,27.1898 C26.918476,27.1168292 27.0745579,26.9624374 27.1712889,26.7749404 C30.4882772,27.9669287 33.5617977,28.6133263 36.3256398,28.7185076 C36.3476105,28.7201977 36.3680901,28.7312327 36.3900608,28.7312327 C36.4018912,28.7312327 36.4130257,28.7252678 36.4248561,28.7244725 C40.6393649,28.8661392 44.126055,27.7454316 46.6260491,25.3624491 C47.7949731,24.2494959 48.7111836,22.8777649 49.3881018,21.2921918 C49.4008269,21.2659462 49.4144468,21.242186 49.4237918,21.2150456 C50.4154585,18.8515485 50.8557684,15.9995251 50.7531719,12.7716129 C50.7717626,12.6621567 50.7692772,12.5543906 50.7446222,12.4466246 C50.6335754,9.87027953 50.1745754,7.05812164 49.3686164,4.06095205 C49.5044175,4.10678246 49.639324,4.15092281 49.7767158,4.19754854 C49.8691719,4.22806901 49.9616281,4.24248421 50.0523942,4.24248421" id="Fill-15" fill="#FFFFFF" mask="url(#mask-2)"></path>
                </g>
            </g>
        </g>
    </g>
</svg>