<svg xmlns="http://www.w3.org/2000/svg" width="8" height="11" viewBox="0 0 8 11">
  <path fill="#00C0E9" fill-rule="evenodd" d="M362.714286,9.95 L359.285714,9.95 L359.285714,7.75 C359.285714,6.8403 360.054857,6.1 361,6.1 C361.945143,6.1 362.714286,6.8403 362.714286,7.75 L362.714286,9.95 Z M361,13.8 C360.526857,13.8 360.142857,13.4304 360.142857,12.975 C360.142857,12.5196 360.526286,12.15 361,12.15 C361.473714,12.15 361.857143,12.5196 361.857143,12.975 C361.857143,13.4304 361.473143,13.8 361,13.8 Z M363.857143,9.95 L363.857143,7.75 C363.857143,6.23365 362.575429,5 361,5 C359.424571,5 358.142857,6.23365 358.142857,7.75 L358.142857,9.95 C357.512571,9.95 357,10.4428 357,11.05 L357,14.9 C357,15.5072 357.512571,16 358.142857,16 L363.857143,16 C364.487429,16 365,15.5072 365,14.9 L365,11.05 C365,10.4428 364.487429,9.95 363.857143,9.95 Z" transform="translate(-357 -5)"/>
</svg>
