<?xml version="1.0" encoding="UTF-8"?>
<svg width="53px" height="53px" viewBox="0 0 53 53" version="1.1" xmlns="http://www.w3.org/2000/svg" xmlns:xlink="http://www.w3.org/1999/xlink">
    <!-- Generator: Sketch 51.2 (57519) - http://www.bohemiancoding.com/sketch -->
    <title>Group 3</title>
    <desc>Created with Sketch.</desc>
    <defs></defs>
    <g id="Symbols" stroke="none" stroke-width="1" fill="none" fill-rule="evenodd">
        <g id="Icon-/-Diseases-Copy-9" transform="translate(-1.000000, -1.000000)" fill="#FEFEFE" stroke="#FFFFFF" stroke-width="0.2">
            <g id="Group-3" transform="translate(2.000000, 2.000000)">
                <path d="M49.4861124,26.2110438 C49.105192,38.8737119 38.8738248,49.1050792 26.210931,49.4862252 L26.210931,26.2110438 L49.4861124,26.2110438 Z M9.4989531,43.3935305 C16.4139664,42.8356898 22.2394752,38.360327 24.7486301,32.1945173 L24.7486301,49.4862252 C18.9041655,49.3102075 13.5778248,47.0361942 9.4989531,43.3935305 Z M1.51158584,26.9972562 C4.75708142,29.7313978 8.81767434,31.2214553 13.1055106,31.2214553 C17.3139133,31.2214553 21.3036478,29.7871367 24.5184531,27.1493535 C23.6507761,35.4704774 16.6003646,41.9804243 8.0553823,41.9903535 C4.29763009,38.0265704 1.87467876,32.7873358 1.51158584,26.9972562 Z M23.4869442,26.1020482 C20.5510593,28.4712916 16.9264487,29.7591544 13.1055106,29.7591544 C8.71973628,29.7591544 4.59212124,28.0623889 1.46870973,24.9807252 C1.58808584,19.1502518 3.79597965,13.8236854 7.37297522,9.71976504 C8.11292655,18.3254509 14.9209752,25.223765 23.4869442,26.1020482 Z M24.7486301,20.0350792 L24.7486301,24.7223403 C15.9118646,24.4106987 8.81406372,17.1483889 8.76825398,8.24753496 C12.9319752,4.20883142 18.5482938,1.65995973 24.7486301,1.47333584 L24.7486301,20.0350792 Z M26.210931,1.46227832 L49.4773115,1.46227832 C48.9688912,10.7824155 38.7894265,18.2832518 26.210931,18.5644288 L26.210931,1.46227832 Z M43.4184664,14.4489996 C48.2812938,10.7993403 50.9594708,5.92771195 50.9594708,0.731127876 L50.9594708,-2.25663717e-05 L26.210931,-2.25663717e-05 L25.4797805,-2.25663717e-05 L24.7486301,-2.25663717e-05 L24.7486301,0.0110349558 C11.035723,0.399627876 9.02654867e-05,11.6749155 9.02654867e-05,25.4798934 C9.02654867e-05,39.2848712 11.035723,50.5599332 24.7486301,50.9483004 L24.7486301,50.9595836 L25.4797805,50.9595836 L26.210931,50.9595836 L26.210931,50.9483004 C39.9238381,50.5599332 50.9594708,39.2848712 50.9594708,25.4798934 L50.9594708,24.7487429 L26.210931,24.7487429 L26.210931,20.0267296 C32.7055327,19.8888491 38.7916832,17.9212872 43.4184664,14.4489996 Z" id="Fill-1"></path>
            </g>
        </g>
    </g>
</svg>