<?xml version="1.0" encoding="UTF-8"?>
<svg width="38px" height="51px" viewBox="0 0 38 51" version="1.1" xmlns="http://www.w3.org/2000/svg" xmlns:xlink="http://www.w3.org/1999/xlink">
    <!-- Generator: Sketch 51.2 (57519) - http://www.bohemiancoding.com/sketch -->
    <title>Group 14</title>
    <desc>Created with Sketch.</desc>
    <defs>
        <polygon id="path-1" points="0 0.000160629921 37.9917683 0.000160629921 37.9917683 50.8995661 0 50.8995661"></polygon>
    </defs>
    <g id="Symbols" stroke="none" stroke-width="1" fill="none" fill-rule="evenodd">
        <g id="Icon-/-Diseases-Copy-8" transform="translate(-10.000000, -3.000000)">
            <g id="Group-14" transform="translate(10.000000, 3.000000)">
                <g id="Group-3" transform="translate(0.000000, 0.100293)">
                    <mask id="mask-2" fill="white">
                        <use xlink:href="#path-1"></use>
                    </mask>
                    <g id="Clip-2"></g>
                    <path d="M36.0892617,48.6171154 C36.0892617,48.8252315 35.9201166,48.9946961 35.7121694,48.9946961 L2.27978945,48.9946961 C2.07184222,48.9946961 1.9026971,48.8252315 1.9026971,48.6171154 L1.9026971,2.2828122 C1.9026971,2.07459567 2.07184222,1.9051311 2.27978945,1.9051311 L26.8885493,1.9051311 L26.8885493,8.83510748 C26.8885493,10.0938437 27.9113409,11.1179598 29.1684491,11.1179598 L36.089362,11.1179598 L36.0892617,48.6171154 Z M28.7911562,3.25241457 L34.7438211,9.21268819 L29.1683488,9.21268819 C28.9603013,9.21268819 28.7911562,9.04332402 28.7911562,8.83510748 L28.7911562,3.25241457 Z M37.9892617,10.1556862 C37.9864544,9.90299528 37.8884966,9.66727087 37.7132354,9.49178268 L28.5115203,0.278351575 C28.3321483,0.0989480315 28.0936206,0.000160629921 27.8398528,0.000160629921 L2.27978945,0.000160629921 C1.02268127,0.000160629921 -1.00263852e-05,1.02417638 -1.00263852e-05,2.2828122 L-1.00263852e-05,48.617015 C-1.00263852e-05,49.8756508 1.02268127,50.8995661 2.27968918,50.8995661 L35.7120691,50.8995661 C36.969077,50.8995661 37.9917683,49.8756508 37.9917683,48.617015 L37.9917683,10.1883142 C37.9911668,10.1842984 37.9906654,10.1799815 37.9902644,10.1755642 L37.9892617,10.1556862 Z" id="Fill-1" fill="#FFFFFF" mask="url(#mask-2)"></path>
                </g>
                <path d="M7.40787441,17.5189417 C7.40787441,18.0441012 7.83459736,18.4714772 8.35917784,18.4714772 L29.6326607,18.4714772 C30.1572412,18.4714772 30.5839641,18.0441012 30.5839641,17.5189417 C30.5840644,17.2645441 30.485104,17.0253059 30.3054311,16.8454004 C30.1257583,16.6654949 29.8868296,16.5664063 29.6327609,16.5664063 L8.35917784,16.5664063 C7.83459736,16.5664063 7.40787441,16.9936819 7.40787441,17.5189417" id="Fill-4" fill="#FFFFFF"></path>
                <path d="M8.35920792,25.733827 L29.6326908,25.733827 C30.1572712,25.733827 30.5839942,25.3065514 30.5839942,24.7812915 C30.5840945,24.5268939 30.485134,24.2877561 30.3053609,24.1078506 C30.1256881,23.9278447 29.8867594,23.8287561 29.632791,23.8287561 L8.35920792,23.8287561 C7.83462744,23.8287561 7.40790449,24.2561321 7.40790449,24.7812915 C7.40790449,25.3065514 7.83462744,25.733827 8.35920792,25.733827" id="Fill-6" fill="#FFFFFF"></path>
                <path d="M8.35920792,32.9961467 L29.6326908,32.9961467 C30.1572712,32.9961467 30.5839942,32.5688711 30.5839942,32.0436112 C30.5840945,31.7892136 30.485134,31.5500758 30.3053609,31.3701703 C30.1256881,31.1901644 29.8867594,31.0910758 29.632791,31.0910758 L8.35920792,31.0910758 C7.83462744,31.0910758 7.40790449,31.5183514 7.40790449,32.0436112 C7.40790449,32.5688711 7.83462744,32.9961467 8.35920792,32.9961467" id="Fill-8" fill="#FFFFFF"></path>
                <path d="M18.9959894,38.353526 L8.35919789,38.353526 C7.83461741,38.353526 7.40789446,38.780902 7.40789446,39.3060614 C7.40789446,39.8313213 7.83461741,40.2586972 8.35919789,40.2586972 L18.9959894,40.2586972 C19.5204697,40.2586972 19.9472929,39.8313213 19.9472929,39.3060614 C19.9472929,38.780902 19.5204697,38.353526 18.9959894,38.353526" id="Fill-10" fill="#FFFFFF"></path>
                <path d="M24.670342,41.9977972 C24.4890649,41.8162854 24.2495346,41.7253287 24.0101045,41.7253287 C23.7738828,41.7253287 23.5377615,41.8136752 23.357086,41.9908701 C23.1806216,42.1638484 23.0825636,42.3962598 23.0807588,42.6450354 C23.0791546,42.8950157 23.1748063,43.1313425 23.3501678,43.3107461 L25.7339409,45.7141713 C25.9097034,45.8901614 26.1442206,45.9873425 26.3939778,45.9873425 C26.6401256,45.9873425 26.8723367,45.8904626 27.0479989,45.7145728 L32.7558195,40.0326909 C33.1155662,39.6725787 33.1175715,39.0814606 32.7600306,38.7149232 C32.583867,38.5389331 32.350553,38.4419528 32.1030016,38.4419528 C31.8553499,38.4419528 31.6219356,38.5390335 31.445772,38.7153248 L26.4003947,43.7401299 L24.670342,41.9977972 Z" id="Fill-12" fill="#FFFFFF"></path>
            </g>
        </g>
    </g>
</svg>