<?xml version="1.0" encoding="UTF-8"?>
<svg width="51px" height="53px" viewBox="0 0 51 53" version="1.1" xmlns="http://www.w3.org/2000/svg" xmlns:xlink="http://www.w3.org/1999/xlink">
    <!-- Generator: Sketch 51.2 (57519) - http://www.bohemiancoding.com/sketch -->
    <title>Group 3</title>
    <desc>Created with Sketch.</desc>
    <defs></defs>
    <g id="Symbols" stroke="none" stroke-width="1" fill="none" fill-rule="evenodd">
        <g id="Icon-/-Diseases-Copy-21" transform="translate(-3.000000, -1.000000)" fill="#FFFFFF">
            <g id="Group-3" transform="translate(3.000000, 1.000000)">
                <path d="M38.3673614,47.5930756 C38.3655181,45.9303547 36.9983494,44.5529709 35.3460723,44.548657 C33.6864217,44.544343 32.3217108,45.9124826 32.3229398,47.58075 C32.3247831,49.2884593 33.6618434,50.6356453 35.350988,50.6307151 C37.0161687,50.6264012 38.3698193,49.2625756 38.3673614,47.5930756 M35.3380843,22.2677035 C36.9977349,22.2720174 38.345241,20.9420872 38.3661325,19.27875 C38.3876386,17.5833663 37.0438193,16.2109128 35.357747,16.2065988 C33.6796627,16.2029012 32.327241,17.5279012 32.3235542,19.1795291 C32.319253,20.9254477 33.6255904,22.2640058 35.3380843,22.2677035 M22.221253,5.0778314 C22.2783976,6.82621512 23.6523253,8.16662209 25.3162771,8.09944767 C27.0490482,8.02919186 28.3136024,6.65673837 28.261988,4.90219186 C28.2146747,3.2844593 26.7731566,1.96130814 25.1221084,2.02170349 C23.5054699,2.08025 22.1690241,3.48844767 22.221253,5.0778314 M15.1365542,22.268936 C16.7863735,22.2781802 18.1633735,20.9316105 18.1787349,19.294157 C18.1940964,17.5950756 16.859494,16.2195407 15.1850964,16.2072151 C13.5063976,16.1955058 12.1177229,17.5396105 12.1128072,19.1801453 C12.1091205,20.899564 13.4406506,22.2596919 15.1365542,22.268936 M25.2443855,36.4421221 C26.9255422,36.4408895 28.2693614,35.0974012 28.2662892,33.4223547 C28.261988,31.729436 26.9421325,30.3951919 25.2572892,30.3816337 C23.5994819,30.3680756 22.2249398,31.7158779 22.2206386,33.3607267 C22.2151084,35.0986337 23.5355783,36.4439709 25.2443855,36.4421221 M15.1463855,50.6307151 C16.8097229,50.6300988 18.1756627,49.2668895 18.1793494,47.6035523 C18.1818072,45.9463779 16.8177108,44.5646802 15.1611325,44.548657 C13.5199157,44.5314012 12.116494,45.9235756 12.1134217,47.5708895 C12.1103494,49.2607267 13.4689157,50.6307151 15.1463855,50.6307151 M45.4274819,36.4421221 C47.102494,36.446436 48.4844096,35.0826105 48.4751928,33.4334477 C48.4672048,31.7497733 47.1356747,30.4013547 45.462506,30.3804012 C43.8077711,30.3606802 42.4160241,31.7152616 42.4111084,33.3496337 C42.4061928,35.088157 43.7229759,36.4378081 45.4274819,36.4421221 M5.04346988,36.4421221 C6.7043494,36.4452035 8.06537349,35.1109593 8.08626506,33.4599477 C8.10777108,31.782436 6.74920482,30.3964244 5.06866265,30.3804012 C3.41146988,30.3649942 2.02525301,31.718343 2.02218072,33.354564 C2.01849398,35.0918547 3.33712048,36.439657 5.04346988,36.4421221 M17.2078916,42.9524942 C18.6635422,40.9101453 20.1044458,38.8862849 21.5588675,36.8464012 C20.655,35.8739128 20.1990723,34.717157 20.1984578,33.4038663 C20.1972289,32.0979709 20.6795783,30.9621686 21.5576386,29.9785872 C20.1032169,27.9387035 18.6567831,25.9074477 17.1986747,23.8614012 C15.8388795,24.4444012 14.484,24.4579593 13.1057711,23.8601686 C12.7518434,24.355657 12.4016024,24.8455988 12.0519759,25.3367733 C11.0037108,26.8072151 9.95728916,28.2801221 8.90410843,29.7480988 C8.79596386,29.8997035 8.74250602,29.9983081 8.89366265,30.1733314 C10.7265904,32.2933314 10.4224337,35.5725523 8.24049398,37.3369593 C5.45761446,39.5863779 1.33214458,38.3692267 0.24639759,34.9790756 C-0.702939759,32.014157 1.18959036,28.9124244 4.25757831,28.4181686 C5.22596386,28.26225 6.1666988,28.3935174 7.10436145,28.7897849 C8.5563253,26.7505174 10.0070602,24.7137151 11.4639398,22.6670523 C10.8089277,21.959564 10.4052289,21.1534709 10.2006145,20.2345988 C9.60090361,17.5359128 11.4971205,14.7176686 14.2130241,14.2616221 C15.1635904,14.1020058 16.0803614,14.1722616 16.9737831,14.5272384 C17.1372289,14.5919477 17.2281687,14.5777733 17.3350843,14.4267849 C18.7176145,12.4762616 20.1062892,10.529436 21.4931205,8.58137791 C21.5109398,8.55672674 21.522,8.52714535 21.5471928,8.4784593 C20.5284217,7.36977326 20.0767952,6.03984302 20.2181205,4.54475 C20.3465422,3.18893605 20.9634578,2.05190116 22.0074217,1.17247093 C23.9534096,-0.465598837 26.883759,-0.372540698 28.6970241,1.36043605 C30.5514578,3.13285465 30.9631446,6.23643605 28.9428072,8.49818023 C29.5541928,9.36158721 30.1674217,10.2293081 30.7843373,11.0951802 C31.5597831,12.1841453 32.3413735,13.2681802 33.1100602,14.3614593 C33.2366386,14.5414128 33.3374096,14.6011919 33.5635301,14.5142965 C36.5786747,13.3600058 39.882,15.3129942 40.3317831,18.5207267 C40.5406988,20.0078081 40.1480602,21.334657 39.1858193,22.4889477 C39.1458795,22.5370174 39.1047108,22.5844709 39.0653855,22.6325407 C39.059241,22.6405523 39.0561687,22.6504128 39.0420361,22.6812267 C40.4804819,24.7032384 41.9263012,26.7351105 43.3844096,28.7836221 C44.858494,28.1833663 46.3190602,28.1907616 47.7378434,28.9105756 C48.8174458,29.4578314 49.5953494,30.3113779 50.0746265,31.4299244 C51.0608313,33.7354244 50.264494,36.2757267 48.1065181,37.7141221 C46.1826506,38.9965988 43.473506,38.6496337 41.7819036,36.912343 C40.202747,35.2909128 39.7025783,32.2890174 41.7444217,29.9662616 C40.3022892,27.9424012 38.8558554,25.9123779 37.3952892,23.8626337 C36.0821928,24.4185174 34.7641807,24.4696686 33.4424819,23.9365872 C32.4876145,23.5507965 31.729988,22.9191105 31.1480964,22.0667965 C30.0451446,20.4527616 29.8306988,17.8422035 31.6464217,15.7893779 C30.2024458,13.7618198 28.756012,11.7299477 27.299747,9.68390116 C25.9387229,10.2613547 24.5832289,10.2773779 23.1957831,9.68081977 C21.747506,11.7139244 20.2961566,13.7519593 18.8478795,15.7862965 C20.6623735,17.8039942 20.6058434,20.7787733 18.8460361,22.6806105 C20.2875542,24.7063198 21.732759,26.7375756 23.1884096,28.7836221 C24.487988,28.257936 25.784494,28.2018547 27.0914458,28.7065872 C28.0678193,29.0843663 28.8303614,29.7283779 29.4196265,30.5819244 C30.5090602,32.1583663 30.7935542,34.7978895 28.9434217,36.8581105 C30.3861687,38.8850523 31.831988,40.9156919 33.2907108,42.965436 C34.7260843,42.3540872 36.1553133,42.3670291 37.5519759,43.0461686 C38.650012,43.5804826 39.4623253,44.4198547 39.9489759,45.5482616 C40.9788072,47.9344942 40.1867711,50.5160872 37.9575181,51.9187384 C35.9906386,53.1549942 33.2470843,52.8875291 31.5388916,50.9339244 C29.9677229,49.1380872 29.7637229,46.2797849 31.649494,44.1548547 C31.2076988,43.5336453 30.760988,42.9062733 30.3148916,42.2789012 C29.3637108,40.9434244 28.4094578,39.6097965 27.4656506,38.2687733 C27.3421446,38.0931337 27.2395301,38.051843 27.0343012,38.1319593 C25.8379518,38.6046453 24.6342289,38.5990988 23.4403373,38.1276453 C23.241253,38.0487616 23.1490843,38.098064 23.0360241,38.2582965 C21.6836024,40.1656802 20.3262651,42.0712151 18.9627831,43.9718198 C18.8515663,44.1271221 18.8829036,44.2127849 18.9916627,44.3446686 C19.7529759,45.2690872 20.1757229,46.3235407 20.1886265,47.5326802 C20.2132048,49.8874826 18.6506386,51.9279826 16.3783735,52.5072849 C13.4510964,53.2523663 10.5754337,51.2993779 10.1520723,48.2789942 C9.76680723,45.5279244 11.7134096,42.9426337 14.4391446,42.5851919 C15.3989277,42.4588547 15.6907952,42.497064 17.2078916,42.9524942" id="Fill-1"></path>
            </g>
        </g>
    </g>
</svg>