<?xml version="1.0" encoding="UTF-8"?>
<svg width="8px" height="5px" viewBox="0 0 8 5" version="1.1" xmlns="http://www.w3.org/2000/svg" xmlns:xlink="http://www.w3.org/1999/xlink">
    <!-- Generator: Sketch 51.2 (57519) - http://www.bohemiancoding.com/sketch -->
    <title>Chevron</title>
    <desc>Created with Sketch.</desc>
    <defs></defs>
    <g id="Symbols" stroke="none" stroke-width="1" fill="none" fill-rule="evenodd">
        <g id="Top-Nav" transform="translate(-1351.000000, -20.000000)" fill="#03132D">
            <g id="Language" transform="translate(1264.000000, 10.000000)">
                <path d="M87.0798933,10.905988 L90.8147425,14.8893713 C90.8681039,14.9463473 90.9294933,14.9748802 90.9989389,14.9748802 C91.0683565,14.9748802 91.1298863,14.9463473 91.1832758,14.8893713 L94.9178161,10.905988 C94.9712898,10.8489222 94.9979846,10.7834431 94.9979846,10.7093413 C94.9979846,10.6352695 94.9712056,10.5697006 94.9178161,10.5127545 L94.5171986,10.085479 C94.4637811,10.028503 94.4023074,10.0000299 94.3328618,10.0000299 C94.2634161,10.0000299 94.2019425,10.028503 94.1485249,10.085479 L90.9989389,13.4448204 L87.8492407,10.0852695 C87.7958512,10.0282934 87.7343495,10 87.6650161,10 C87.5954582,10 87.5339846,10.0284731 87.4805951,10.0852695 L87.0799214,10.5127246 C87.0265319,10.5696707 87.0000056,10.6352695 87.0000056,10.7093114 C86.9999775,10.7834431 87.0265039,10.849012 87.0798933,10.905988" id="Chevron"></path>
            </g>
        </g>
    </g>
</svg>