<?xml version="1.0" encoding="UTF-8"?>
<svg width="12px" height="7px" viewBox="0 0 12 7" version="1.1" xmlns="http://www.w3.org/2000/svg" xmlns:xlink="http://www.w3.org/1999/xlink">
    <!-- Generator: Sketch 51.2 (57519) - http://www.bohemiancoding.com/sketch -->
    <title>Chevron</title>
    <desc>Created with Sketch.</desc>
    <defs></defs>
    <g id="Design" stroke="none" stroke-width="1" fill="none" fill-rule="evenodd">
        <g id="Home-[Mobile-Menu]" transform="translate(-115.000000, -573.000000)" fill="#FFFFFF">
            <path d="M115.119862,574.274788 L120.723551,579.879683 C120.803614,579.959852 120.895721,580 120.999916,580 C121.104068,580 121.196386,579.959852 121.276491,579.879683 L126.879717,574.274788 C126.959948,574.194492 127,574.102359 127,573.998092 C127,573.893868 126.959821,573.801608 126.879717,573.721481 L126.278639,573.120275 C126.198492,573.040106 126.106258,573.000042 126.002064,573.000042 C125.897869,573.000042 125.805635,573.040106 125.725489,573.120275 L120.999916,577.8471 L116.274175,573.11998 C116.19407,573.039811 116.101794,573 115.997768,573 C115.893405,573 115.801171,573.040064 115.721066,573.11998 L115.119904,573.721439 C115.0398,573.801566 115,573.893868 115,573.99805 C114.999958,574.102359 115.039757,574.194618 115.119862,574.274788" id="Chevron"></path>
        </g>
    </g>
</svg>